<svg xmlns="http://www.w3.org/2000/svg" width="220" height="220" viewBox="0 0 220 220">
  <rect width="220" height="220" fill="#dbe8ff" />
  <g fill="none" stroke="#8ea7d4" stroke-linecap="round" stroke-linejoin="round" stroke-width="2" opacity="0.45">
    <path d="M20 35c8-10 20-10 28 0c6 8 6 16 0 24c-8 10-20 10-28 0c-6-8-6-16 0-24z" />
    <path d="M76 30c12 10 24 10 36 0" />
    <path d="M68 64c6 4 14 4 20 0" />
    <path d="M142 24l8 10l12-8" />
    <path d="M170 38c4 6 10 8 18 6" />
    <path d="M32 108c12-12 28-12 40 0" />
    <path d="M94 92c8 6 12 16 10 26" />
    <path d="M122 86h18" />
    <path d="M156 86h12" />
    <path d="M164 102c8-6 16-6 24 0" />
    <path d="M24 162c10-8 20-8 30 0" />
    <path d="M76 152c6 10 6 20 0 30" />
    <path d="M106 172c10 8 22 8 32 0" />
    <path d="M152 148c8-8 18-8 26 0" />
    <path d="M170 178l8 10l12-8" />
    <circle cx="128" cy="28" r="5" />
    <circle cx="54" cy="130" r="4" />
    <circle cx="196" cy="122" r="4" />
    <circle cx="28" cy="194" r="4" />
  </g>
</svg>
